<svg xmlns:xlink="http://www.w3.org/1999/xlink" xmlns="http://www.w3.org/2000/svg" viewBox="0 0 16 15" class="Explore-buttonIcon-Z7y Explore-filterButtonIcon-ayg Explore-openFilterIcon-XQ2" width="18"  height="18" ><path d="M15.8,2H6.9C6.7,0.7,5.4-0.2,4,0.1C3,0.3,2.2,1,2,2H0.2C0.1,2,0,2.1,0,2.3v0.5
    C0,2.9,0.1,3,0.2,3H2C2.3,4.4,3.6,5.2,5,5c1-0.2,1.8-1,1.9-2h8.8C15.9,3,16,2.9,16,2.8V2.3C16,2.1,15.9,2,15.8,2z M4.5,4
    C3.7,4,3,3.3,3,2.5S3.7,1,4.5,1S6,1.7,6,2.5S5.3,4,4.5,4z" fill="#707070"></path><path d="M15.8,12H8.9C8.7,10.7,7.4,9.8,6,10.1c-1,0.2-1.8,1-1.9,1.9H0.2C0.1,12,0,12.1,0,12.3v0.5
    C0,12.9,0.1,13,0.2,13h3.8C4.3,14.4,5.6,15.2,7,15c1-0.2,1.8-1,1.9-1.9h6.8c0.1,0,0.2-0.1,0.2-0.2v-0.5C16,12.1,15.9,12,15.8,12z
    M6.5,14C5.7,14,5,13.3,5,12.5S5.7,11,6.5,11S8,11.7,8,12.5S7.3,14,6.5,14z" fill="#707070"></path><path d="M0,7.3v0.5C0,7.9,0.1,8,0.2,8h8.8c0.3,1.4,1.6,2.2,2.9,1.9c1-0.2,1.8-1,1.9-1.9h1.8
    C15.9,8,16,7.9,16,7.8V7.3C16,7.1,15.9,7,15.8,7h-1.8c-0.3-1.3-1.6-2.2-2.9-1.9C10,5.3,9.2,6,9.1,7H0.2C0.1,7,0,7.1,0,7.3z
    M10,7.5 C10,6.7,10.7,6,11.5,6S13,6.7,13,7.5S12.3,9,11.5,9S10,8.3,10,7.5z" fill="#707070"></path></svg>