<svg xmlns:xlink="http://www.w3.org/1999/xlink" data-iid="v-1-425" xmlns="http://www.w3.org/2000/svg" viewBox="0 0 20 20" aria-labelledby="IconBase-title-v-1-425 IconBase-description-v-1-425" role="graphics-symbol img" width="20" height="20" class="FeaturedBadge-starBadgeIcon-uMJ" aria-hidden="true"><title id="IconBase-title-v-1-425"></title><desc id="IconBase-description-v-1-425"></desc><g><defs><linearGradient id="star-badge-linear-gradient" x1="0.5" x2="0.5" y2="1" gradientUnits="objectBoundingBox"><stop offset="0" stop-color="#0facff"></stop><stop offset="1" stop-color="#0057ff"></stop></linearGradient><linearGradient id="star-badge-linear-gradient" x1="0.5" x2="0.5" y2="1" gradientUnits="objectBoundingBox"><stop offset="0" stop-color="#0facff"></stop><stop offset="1" stop-color="#0057ff"></stop></linearGradient></defs><g transform="translate(87 -147)"><rect width="20" height="20" rx="6" transform="translate(-87 147)" fill="url(&quot;#star-badge-linear-gradient&quot;)"></rect><g transform="translate(-81.138 153.027)"><path d="M4.139.277a.614.614,0,0,0-.556.367L2.644,2.618l-.007.014-.014,0L.556,2.954a.62.62,0,0,0-.522.429.659.659,0,0,0,.157.673L1.7,5.575l0,0a.019.019,0,0,1,.005.017v0L1.353,7.8h0a.66.66,0,0,0,.247.634.6.6,0,0,0,.655.048L4.118,7.452a.051.051,0,0,1,.043,0L6.023,8.477a.6.6,0,0,0,.656-.047A.659.659,0,0,0,6.926,7.8L6.565,5.6v0a.014.014,0,0,1,0-.009.019.019,0,0,1,0-.008l0,0L8.086,4.054a.659.659,0,0,0,.156-.672.62.62,0,0,0-.521-.428L5.654,2.635l-.014,0-.007-.014L4.695.644A.614.614,0,0,0,4.139.277Z" transform="translate(0 -0.277)" fill="#FFFFFF" fill-rule="evenodd"></path></g></g></g></svg>