<svg xmlns:xlink="http://www.w3.org/1999/xlink" data-iid="v-1-416" xmlns="http://www.w3.org/2000/svg" viewBox="0 0 19.25 19.25" aria-labelledby="IconBase-title-v-1-416 IconBase-description-v-1-416" role="graphics-symbol img" width="27" height="44" class="LandingWhyHireOnBehance-whyIcon-_La"><title id="IconBase-title-v-1-416" fill="#0057FF">SecureSite</title><desc id="IconBase-description-v-1-416" fill="#0057FF">website with lock in bottom right corner</desc><g fill="#0057FF"><g transform="translate(0.625 0.625)" fill="#0057FF"><path d="M16.319,6.719v-4.8a1.2,1.2,0,0,0-1.2-1.2H1.919a1.2,1.2,0,0,0-1.2,1.2v9.6a1.2,1.2,0,0,0,1.2,1.2h7.2" transform="translate(-0.719 -0.719)" fill="none" stroke="#0057FF" stroke-linecap="round" stroke-linejoin="round" stroke-width="1"></path><path d="M.719,5.031h15.6" transform="translate(-0.719 -1.431)" fill="none" stroke="#0057FF" stroke-linecap="round" stroke-linejoin="round" stroke-width="1"></path><path d="M3.594,8.622h4.8" transform="translate(-1.194 -2.025)" fill="none" stroke="#0057FF" stroke-linecap="round" stroke-linejoin="round" stroke-width="1"></path><path d="M3.594,11.5h2.4" transform="translate(-1.194 -2.5)" fill="none" stroke="#0057FF" stroke-linecap="round" stroke-linejoin="round" stroke-width="1"></path><path d="M19.656,15.094h-4.8a1.2,1.2,0,0,0-1.2,1.2v3.6a1.2,1.2,0,0,0,1.2,1.2h4.8a1.2,1.2,0,0,0,1.2-1.2v-3.6A1.2,1.2,0,0,0,19.656,15.094Z" transform="translate(-2.856 -3.094)" fill="none" stroke="#0057FF" stroke-linecap="round" stroke-linejoin="round" stroke-width="1"></path><path d="M17.494,10.781a2.4,2.4,0,0,0-2.4,2.4v1.2h4.8v-1.2A2.4,2.4,0,0,0,17.494,10.781Z" transform="translate(-3.094 -2.381)" fill="none" stroke="#0057FF" stroke-linecap="round" stroke-linejoin="round" stroke-width="1"></path><path d="M17.909,18.956a.3.3,0,1,1,0-.6" transform="translate(-3.509 -3.633)" fill="none" stroke="#0057FF" stroke-width="1"></path><path d="M17.969,18.956a.3.3,0,1,0,0-.6" transform="translate(-3.569 -3.633)" fill="none" stroke="#0057FF" stroke-width="1"></path></g></g></svg>