<svg xmlns:xlink="http://www.w3.org/1999/xlink" data-iid="v-1-415" xmlns="http://www.w3.org/2000/svg" viewBox="0 0 30 30" aria-labelledby="IconBase-title-v-1-415 IconBase-description-v-1-415" role="graphics-symbol img" width="30" height="30" class="LandingWhyHireOnBehance-whyIcon-_La"><title id="IconBase-title-v-1-415" fill="#0057FF">Broken Grid</title><desc id="IconBase-description-v-1-415" fill="#0057FF">Broken Grid</desc><g fill="#0057FF"><path fill-rule="evenodd" clip-rule="evenodd" d="M1 4.09333C1 2.39029 2.39029 1 4.09333 1H14.8727C15.2869 1 15.6227 1.33579 15.6227 1.75V28.1125C15.6227 28.5267 15.2869 28.8625 14.8727 28.8625H4.09333C2.39029 28.8625 1 27.4722 1 25.7692V4.09333ZM4.09333 2.5C3.21871 2.5 2.5 3.21871 2.5 4.09333V25.7692C2.5 26.6438 3.21871 27.3625 4.09333 27.3625H14.1227V2.5H4.09333Z" fill="#0057FF"></path><path fill-rule="evenodd" clip-rule="evenodd" d="M19.7467 14.9898C19.7467 14.5756 20.0825 14.2398 20.4967 14.2398H22.2542C22.6684 14.2398 23.0042 14.5756 23.0042 14.9898C23.0042 15.404 22.6684 15.7398 22.2542 15.7398H20.4967C20.0825 15.7398 19.7467 15.404 19.7467 14.9898Z" fill="#0057FF"></path><path fill-rule="evenodd" clip-rule="evenodd" d="M25.0192 14.9898C25.0192 14.5756 25.355 14.2398 25.7692 14.2398H27.761C28.1752 14.2398 28.511 14.5756 28.511 14.9898C28.511 15.404 28.1752 15.7398 27.761 15.7398H25.7692C25.355 15.7398 25.0192 15.404 25.0192 14.9898Z" fill="#0057FF"></path><path fill-rule="evenodd" clip-rule="evenodd" d="M19.7467 1.75C19.7467 1.33579 20.0825 1 20.4967 1H22.2542C22.6684 1 23.0042 1.33579 23.0042 1.75C23.0042 2.16421 22.6684 2.5 22.2542 2.5H20.4967C20.0825 2.5 19.7467 2.16421 19.7467 1.75Z" fill="#0057FF"></path><path fill-rule="evenodd" clip-rule="evenodd" d="M19.7467 28.1125C19.7467 27.6983 20.0825 27.3625 20.4967 27.3625H22.2542C22.6684 27.3625 23.0042 27.6983 23.0042 28.1125C23.0042 28.5267 22.6684 28.8625 22.2542 28.8625H20.4967C20.0825 28.8625 19.7467 28.5267 19.7467 28.1125Z" fill="#0057FF"></path><path fill-rule="evenodd" clip-rule="evenodd" d="M13.9249 1.75C13.9249 1.33579 14.2607 1 14.6749 1H16.9817C17.3959 1 17.7317 1.33579 17.7317 1.75C17.7317 2.16421 17.3959 2.5 16.9817 2.5H14.6749C14.2607 2.5 13.9249 2.16421 13.9249 1.75Z" fill="#0057FF"></path><path fill-rule="evenodd" clip-rule="evenodd" d="M14.4742 28.1125C14.4742 27.6983 14.81 27.3625 15.2242 27.3625H16.9817C17.3959 27.3625 17.7317 27.6983 17.7317 28.1125C17.7317 28.5267 17.3959 28.8625 16.9817 28.8625H15.2242C14.81 28.8625 14.4742 28.5267 14.4742 28.1125Z" fill="#0057FF"></path><path fill-rule="evenodd" clip-rule="evenodd" d="M28.1125 25.0192C28.5267 25.0192 28.8625 25.355 28.8625 25.7692C28.8625 27.4722 27.4722 28.8625 25.7692 28.8625C25.355 28.8625 25.0192 28.5267 25.0192 28.1125C25.0192 27.6983 25.355 27.3625 25.7692 27.3625C26.6438 27.3625 27.3625 26.6438 27.3625 25.7692C27.3625 25.355 27.6983 25.0192 28.1125 25.0192Z" fill="#0057FF"></path><path fill-rule="evenodd" clip-rule="evenodd" d="M25.0192 1.75C25.0192 1.33579 25.355 1 25.7692 1C27.4722 1 28.8625 2.39029 28.8625 4.09333C28.8625 4.50755 28.5267 4.84333 28.1125 4.84333C27.6983 4.84333 27.3625 4.50755 27.3625 4.09333C27.3625 3.21871 26.6438 2.5 25.7692 2.5C25.355 2.5 25.0192 2.16421 25.0192 1.75Z" fill="#0057FF"></path><path fill-rule="evenodd" clip-rule="evenodd" d="M28.1125 12.7167C28.5267 12.7167 28.8625 13.0525 28.8625 13.4667V16.3958C28.8625 16.81 28.5267 17.1458 28.1125 17.1458C27.6983 17.1458 27.3625 16.81 27.3625 16.3958V13.4667C27.3625 13.0525 27.6983 12.7167 28.1125 12.7167Z" fill="#0057FF"></path><path fill-rule="evenodd" clip-rule="evenodd" d="M28.1125 19.1608C28.5267 19.1608 28.8625 19.4966 28.8625 19.9108V22.2542C28.8625 22.6684 28.5267 23.0042 28.1125 23.0042C27.6983 23.0042 27.3625 22.6684 27.3625 22.2542V19.9108C27.3625 19.4966 27.6983 19.1608 28.1125 19.1608Z" fill="#0057FF"></path><path fill-rule="evenodd" clip-rule="evenodd" d="M28.1125 6.85833C28.5267 6.85833 28.8625 7.19412 28.8625 7.60833V9.95167C28.8625 10.3659 28.5267 10.7017 28.1125 10.7017C27.6983 10.7017 27.3625 10.3659 27.3625 9.95167V7.60833C27.3625 7.19412 27.6983 6.85833 28.1125 6.85833Z" fill="#0057FF"></path><path fill-rule="evenodd" clip-rule="evenodd" d="M1 14.9898C1 14.5756 1.33579 14.2398 1.75 14.2398H16.9817C17.3959 14.2398 17.7317 14.5756 17.7317 14.9898C17.7317 15.404 17.3959 15.7398 16.9817 15.7398H1.75C1.33579 15.7398 1 15.404 1 14.9898Z" fill="#0057FF"></path></g></svg>