<svg xmlns:xlink="http://www.w3.org/1999/xlink" data-iid="v-1-414" xmlns="http://www.w3.org/2000/svg" viewBox="0 0 28 27" aria-labelledby="IconBase-title-v-1-414 IconBase-description-v-1-414" role="graphics-symbol img" width="28" height="27" class="LandingWhyHireOnBehance-whyIcon-_La"><title id="IconBase-title-v-1-414" fill="#0057FF">Sparkling Stars</title><desc id="IconBase-description-v-1-414" fill="#0057FF">Sparkling Stars</desc><g fill="#0057FF"><path fill-rule="evenodd" clip-rule="evenodd" d="M9.945 4.89376C10.2863 4.89376 10.5846 5.12421 10.6707 5.45447C11.3706 8.13756 12.1677 9.90852 13.4314 11.2511C14.6975 12.5963 16.5035 13.5874 19.3795 14.5566C19.6846 14.6594 19.89 14.9454 19.89 15.2673C19.89 15.5892 19.6846 15.8752 19.3795 15.978C16.5035 16.9472 14.6975 17.9383 13.4314 19.2836C12.1677 20.6262 11.3706 22.3971 10.6707 25.0802C10.5846 25.4105 10.2863 25.6409 9.945 25.6409C9.60369 25.6409 9.30542 25.4105 9.21928 25.0802C8.51944 22.3971 7.72228 20.6262 6.45863 19.2836C5.19251 17.9383 3.3865 16.9472 0.510493 15.978C0.20543 15.8752 -2.9206e-06 15.5892 0 15.2673C2.92066e-06 14.9454 0.205441 14.6594 0.510506 14.5566C3.38651 13.5874 5.19251 12.5963 6.45863 11.2511C7.72228 9.90852 8.51944 8.13756 9.21928 5.45447C9.30542 5.12421 9.60369 4.89376 9.945 4.89376ZM2.90312 15.2673C4.88543 16.0864 6.38549 17.0173 7.55092 18.2555C8.60154 19.3718 9.34587 20.7014 9.945 22.3367C10.5441 20.7014 11.2885 19.3718 12.3391 18.2555C13.5045 17.0173 15.0046 16.0864 16.9869 15.2673C15.0046 14.4482 13.5045 13.5174 12.3391 12.2792C11.2885 11.1629 10.5441 9.83326 9.945 8.19797C9.34587 9.83326 8.60154 11.1629 7.55092 12.2792C6.38549 13.5174 4.88543 14.4482 2.90312 15.2673Z" fill="#0057FF"></path><path fill-rule="evenodd" clip-rule="evenodd" d="M21.2029 1.20963e-10C21.544 -6.07955e-06 21.8421 0.230073 21.9285 0.55998C22.3177 2.04622 22.7494 2.97859 23.4066 3.67409C24.0666 4.37248 25.0258 4.90798 26.6283 5.44583C26.9338 5.54837 27.1397 5.8346 27.1397 6.15686C27.1397 6.47911 26.9338 6.76534 26.6283 6.86788C25.0258 7.40573 24.0666 7.94123 23.4066 8.63961C22.7494 9.33511 22.3177 10.2675 21.9285 11.7537C21.8421 12.0836 21.544 12.3137 21.2029 12.3137C20.8619 12.3137 20.5638 12.0836 20.4774 11.7537C20.0882 10.2675 19.6565 9.33511 18.9993 8.63961C18.3394 7.94123 17.3802 7.40573 15.7777 6.86787C15.4722 6.76534 15.2663 6.47911 15.2663 6.15686C15.2663 5.8346 15.4722 5.54837 15.7777 5.44584C17.3802 4.90798 18.3394 4.37249 18.9993 3.67409C19.6565 2.9786 20.0882 2.04623 20.4774 0.560006C20.5638 0.230095 20.8619 6.07979e-06 21.2029 1.20963e-10ZM21.203 3.03767C20.9075 3.6672 20.5491 4.21802 20.0896 4.70432C19.5357 5.29047 18.8614 5.75482 18.0355 6.15686C18.8614 6.5589 19.5357 7.02324 20.0896 7.60939C20.5491 8.09568 20.9075 8.64649 21.203 9.27602C21.4985 8.64649 21.8569 8.09568 22.3164 7.60939C22.8703 7.02324 23.5446 6.55889 24.3705 6.15686C23.5446 5.75482 22.8703 5.29047 22.3164 4.70432C21.8569 4.21802 21.4985 3.6672 21.203 3.03767Z" fill="#0057FF"></path><path fill-rule="evenodd" clip-rule="evenodd" d="M22.9791 17.44C23.3186 17.44 23.6158 17.6682 23.7036 17.9962C23.9877 19.0582 24.2952 19.6938 24.7464 20.1613C25.2018 20.6331 25.8765 21.0091 27.0523 21.3954C27.3601 21.4966 27.5682 21.784 27.5682 22.108C27.5682 22.432 27.3601 22.7193 27.0523 22.8205C25.8765 23.2068 25.2018 23.5828 24.7464 24.0546C24.2952 24.5221 23.9877 25.1577 23.7036 26.2197C23.6158 26.5478 23.3186 26.7759 22.9791 26.7759C22.6395 26.7759 22.3423 26.5477 22.2546 26.2197C21.9705 25.1576 21.6631 24.522 21.2119 24.0546C20.7565 23.5828 20.0817 23.2068 18.9059 22.8205C18.5981 22.7194 18.39 22.432 18.39 22.108C18.39 21.784 18.5981 21.4966 18.9059 21.3954C20.0817 21.0091 20.7565 20.6331 21.2119 20.1613C21.6631 19.6938 21.9705 19.0583 22.2546 17.9962C22.3423 17.6682 22.6395 17.44 22.9791 17.44ZM22.9791 20.2746C22.7874 20.6134 22.5625 20.9219 22.2911 21.203C21.9483 21.5582 21.5484 21.852 21.0827 22.1079C21.5484 22.3639 21.9483 22.6577 22.2911 23.0129C22.5625 23.294 22.7874 23.6025 22.9791 23.9413C23.1708 23.6025 23.3958 23.294 23.6671 23.0129C24.0099 22.6577 24.4099 22.3639 24.8755 22.1079C24.4099 21.852 24.0099 21.5582 23.6671 21.203C23.3958 20.9219 23.1708 20.6134 22.9791 20.2746Z" fill="#0057FF"></path></g></svg>