<svg xmlns:xlink="http://www.w3.org/1999/xlink" xmlns="http://www.w3.org/2000/svg" width="38" height="32" fill="none" viewBox="0 0 38 32"><path fill-rule="evenodd" d="M14.398 2.885a.405.405 0 0 0-.155.558q.03.053.054.11l2.173 5.179h5.06l2.173-5.18q.023-.054.053-.107a.406.406 0 0 0-.16-.559 14.94 14.94 0 0 0-9.198 0m7.478 7.847h-5.752c-1.422 1.042-3.056 2.74-4.357 4.732-1.382 2.116-2.314 4.45-2.314 6.573 0 2.049 1.11 3.982 2.915 5.436S16.59 29.826 19 29.826s4.828-.9 6.632-2.353c1.805-1.454 2.915-3.387 2.915-5.436 0-2.124-.932-4.457-2.314-6.573-1.3-1.992-2.935-3.69-4.357-4.732m-7.298-1.338-2.104-5.018a2.404 2.404 0 0 1 1.24-3.37 16.94 16.94 0 0 1 10.565 0q.045.014.09.033a2.406 2.406 0 0 1 1.158 3.336l-2.105 5.019c1.539 1.205 3.175 2.97 4.485 4.976 1.494 2.287 2.64 5.004 2.64 7.667 0 2.805-1.516 5.266-3.66 6.993-2.146 1.729-5.003 2.796-7.887 2.796s-5.74-1.067-7.886-2.796c-2.145-1.727-3.66-4.188-3.66-6.994 0-2.662 1.145-5.379 2.639-7.666 1.31-2.007 2.946-3.771 4.486-4.976M6.004 6.388h3.622a1 1 0 1 1 0 2H6.004a.173.173 0 0 0-.172.183.2.2 0 0 0 .03.087l1.975 2.848a1 1 0 0 1-.299 1.422 10.74 10.74 0 0 0-5.116 8.753c.002 1.559.285 3.357 1.046 4.731.73 1.317 1.887 2.242 3.813 2.242a1 1 0 1 1 0 2c-2.761 0-4.534-1.42-5.562-3.272-.993-1.79-1.297-3.979-1.297-5.719v-.036a12.74 12.74 0 0 1 5.194-9.815L4.22 9.797a2.174 2.174 0 0 1 .66-3.095 2.2 2.2 0 0 1 1.124-.314m21.372 1a1 1 0 0 1 1-1h3.622a2.175 2.175 0 0 1 2.167 2.306 2.17 2.17 0 0 1-.383 1.102l-1.397 2.016a12.74 12.74 0 0 1 5.194 9.851c0 1.74-.304 3.928-1.297 5.72-1.027 1.851-2.801 3.27-5.562 3.27a1 1 0 1 1 0-2c1.926 0 3.082-.924 3.813-2.24.762-1.375 1.044-3.173 1.046-4.732a10.74 10.74 0 0 0-5.116-8.753 1 1 0 0 1-.3-1.422l1.975-2.848a.172.172 0 0 0-.14-.27h-3.622a1 1 0 0 1-1-1m-8.083 6.031a1 1 0 0 1 1 1v.692a4.47 4.47 0 0 1 2.7 1.681 1 1 0 0 1-1.593 1.21 2.47 2.47 0 0 0-2.107-.972c-.693 0-1.283.212-1.678.508-.393.295-.544.627-.544.91s.15.615.544.91.984.508 1.678.508c1.085 0 2.106.328 2.879.907s1.345 1.455 1.345 2.509-.572 1.93-1.345 2.51a4.6 4.6 0 0 1-1.879.813v.705a1 1 0 1 1-2 0v-.69a4.48 4.48 0 0 1-2.699-1.683 1 1 0 1 1 1.592-1.21 2.48 2.48 0 0 0 2.107.974c.694 0 1.285-.213 1.68-.509.393-.295.544-.628.544-.91s-.15-.614-.544-.909-.985-.507-1.68-.507c-1.085 0-2.106-.329-2.879-.909-.772-.58-1.343-1.457-1.343-2.51s.572-1.93 1.345-2.51a4.6 4.6 0 0 1 1.877-.811v-.707a1 1 0 0 1 1-1" clip-rule="evenodd" fill="#028901"></path><defs><linearGradient id="a" x1="19" x2="19" y1="1.686" y2="30.299" gradientUnits="userSpaceOnUse"><stop stop-color="#078F49" stop-opacity=".753"></stop><stop offset="1" stop-color="#078F49"></stop></linearGradient></defs></svg>