<svg xmlns:xlink="http://www.w3.org/1999/xlink" xmlns="http://www.w3.org/2000/svg" width="38" height="38" fill="none" viewBox="0 0 38 38"><path fill-rule="evenodd" d="M19 .813a1 1 0 0 1 1 1v1.562a1 1 0 1 1-2 0V1.813a1 1 0 0 1 1-1M5.865 4.267a1 1 0 0 1 1.414 0l3.15 3.15a1 1 0 0 1-1.413 1.415l-3.151-3.15a1 1 0 0 1 0-1.415m26.27 0a1 1 0 0 1 0 1.414l-3.15 3.15a1 1 0 1 1-1.415-1.413l3.15-3.151a1 1 0 0 1 1.415 0M19 8.52l2.75 5.498a1 1 0 0 0 .795.548l5.187.52-4.338 4.336a1 1 0 0 0-.258.97l1.6 5.859-5.288-2.645a1 1 0 0 0-.895 0l-5.285 2.646 1.598-5.86a1 1 0 0 0-.258-.97l-4.338-4.34 5.187-.519a1 1 0 0 0 .795-.548zm-.905-2.08a1.727 1.727 0 0 1 2.453.703l2.745 5.488 5.205.521a1.73 1.73 0 0 1 1.459 1.137v.001a1.73 1.73 0 0 1-.405 1.804l-4.333 4.332 1.606 5.885c.087.322.08.662-.022.979v.001a1.73 1.73 0 0 1-.55.809h-.001a1.73 1.73 0 0 1-1.866.212l-.003-.001L19 25.619l-5.382 2.695h-.001a1.728 1.728 0 0 1-2.439-2.002v-.001l1.605-5.885-4.334-4.335a1.73 1.73 0 0 1-.464-.843m10.11-8.808c-.275.168-.496.41-.64.696v.002l-2.747 5.49-5.205.521H9.5a1.728 1.728 0 0 0-1.516 2.099M.813 19a1 1 0 0 1 1-1H6.06a1 1 0 1 1 0 2H1.813a1 1 0 0 1-1-1m30.126 0a1 1 0 0 1 1-1h4.249a1 1 0 1 1 0 2h-4.249a1 1 0 0 1-1-1M27.57 29.168a1 1 0 0 1 1.414 0l3.151 3.15a1 1 0 0 1-1.414 1.415l-3.15-3.15a1 1 0 0 1 0-1.415m-17.14.415a1 1 0 0 1 0 1.414l-3.15 3.151a1 1 0 1 1-1.415-1.414l3.15-3.15a1 1 0 0 1 1.415 0M19 30.866a1 1 0 0 1 1 1v4.322a1 1 0 1 1-2 0v-4.323a1 1 0 0 1 1-1" clip-rule="evenodd" fill="#B125C0"></path><defs><linearGradient id="a" x1="19" x2="19" y1="2.566" y2="35.434" gradientUnits="userSpaceOnUse"><stop stop-color="#B125C0" stop-opacity=".6"></stop><stop offset="1" stop-color="#B125C0"></stop></linearGradient></defs></svg>