<svg xmlns:xlink="http://www.w3.org/1999/xlink" xmlns="http://www.w3.org/2000/svg" width="38" height="22" fill="none" viewBox="0 0 38 22"><path fill-rule="evenodd" d="M25.031 1.625a1 1 0 0 1 1-1h10.547a1 1 0 0 1 1 1v10.547a1 1 0 1 1-2 0V4.039L24.881 14.737a3.345 3.345 0 0 1-4.73 0l-4.888-4.888a1.344 1.344 0 0 0-1.901 0L2.129 21.082a1 1 0 0 1-1.414-1.414L11.947 8.435a3.343 3.343 0 0 1 4.73 0l4.888 4.888a1.344 1.344 0 0 0 1.901 0L34.164 2.625H26.03a1 1 0 0 1-1-1" clip-rule="evenodd" fill="#0057FF"></path><defs><linearGradient id="a" x1="19" x2="19" y1="1.625" y2="20.375" gradientUnits="userSpaceOnUse"><stop stop-color="#0057FF" stop-opacity=".6"></stop><stop offset="1" stop-color="#0057FF"></stop></linearGradient></defs></svg>